<svg xmlns="http://www.w3.org/2000/svg" width="260" height="50" viewBox="0 0 260 50" shape-rendering="geometricPrecision">
<title>ИТС ЦЕНТР logo</title>
<path fill="#c0392b" fill-rule="evenodd" d="M 39.00 7.00 L 39.00 15.00 L 45.00 15.00 L 46.00 16.00 L 46.00 47.00 L 58.00 47.00 L 58.00 16.00 L 59.00 15.00 L 65.00 15.00 L 65.00 7.00 Z M 9.00 7.00 L 9.00 47.00 L 19.00 47.00 L 20.00 46.00 L 20.00 44.00 L 21.00 43.00 L 21.00 41.00 L 22.00 40.00 L 22.00 39.00 L 23.00 38.00 L 23.00 36.00 L 24.00 35.00 L 25.00 35.00 L 26.00 36.00 L 26.00 47.00 L 36.00 47.00 L 36.00 7.00 L 26.00 7.00 L 26.00 8.00 L 25.00 9.00 L 25.00 11.00 L 24.00 12.00 L 24.00 13.00 L 23.00 14.00 L 23.00 16.00 L 22.00 17.00 L 22.00 18.00 L 21.00 19.00 L 20.00 19.00 L 19.00 18.00 L 19.00 7.00 Z M 74.00 7.00 L 73.00 8.00 L 72.00 8.00 L 69.00 11.00 L 69.00 12.00 L 68.00 13.00 L 68.00 40.00 L 69.00 41.00 L 69.00 43.00 L 71.00 45.00 L 72.00 45.00 L 73.00 46.00 L 74.00 46.00 L 75.00 47.00 L 88.00 47.00 L 89.00 46.00 L 90.00 46.00 L 91.00 45.00 L 92.00 45.00 L 95.00 42.00 L 95.00 41.00 L 96.00 40.00 L 96.00 31.00 L 84.00 31.00 L 84.00 39.00 L 82.00 41.00 L 81.00 41.00 L 80.00 40.00 L 80.00 14.00 L 81.00 13.00 L 83.00 13.00 L 84.00 14.00 L 84.00 24.00 L 96.00 24.00 L 96.00 14.00 L 95.00 13.00 L 95.00 11.00 L 92.00 8.00 L 91.00 8.00 L 90.00 7.00 L 87.00 7.00 L 86.00 6.00 L 78.00 6.00 L 77.00 7.00 Z"/>
<path fill="#2c3e50" fill-rule="evenodd" d="M 229.00 7.00 L 229.00 47.00 L 241.00 47.00 L 241.00 31.00 L 242.00 30.00 L 250.00 30.00 L 251.00 29.00 L 252.00 29.00 L 254.00 27.00 L 254.00 25.00 L 255.00 24.00 L 255.00 15.00 L 254.00 14.00 L 254.00 11.00 L 251.00 8.00 L 249.00 8.00 L 248.00 7.00 Z M 242.00 14.00 L 243.00 14.00 L 245.00 16.00 L 245.00 21.00 L 244.00 22.00 L 244.00 23.00 L 243.00 24.00 L 242.00 24.00 L 241.00 23.00 L 241.00 15.00 Z M 200.00 7.00 L 200.00 15.00 L 206.00 15.00 L 207.00 16.00 L 207.00 47.00 L 219.00 47.00 L 219.00 16.00 L 220.00 15.00 L 226.00 15.00 L 226.00 7.00 Z M 169.00 7.00 L 169.00 47.00 L 181.00 47.00 L 181.00 31.00 L 182.00 30.00 L 184.00 30.00 L 185.00 31.00 L 185.00 47.00 L 197.00 47.00 L 197.00 7.00 L 185.00 7.00 L 185.00 20.00 L 184.00 21.00 L 182.00 21.00 L 181.00 20.00 L 181.00 7.00 Z M 145.00 7.00 L 145.00 47.00 L 165.00 47.00 L 165.00 39.00 L 158.00 39.00 L 157.00 38.00 L 157.00 31.00 L 158.00 30.00 L 164.00 30.00 L 164.00 23.00 L 158.00 23.00 L 157.00 22.00 L 157.00 16.00 L 158.00 15.00 L 164.00 15.00 L 164.00 7.00 Z M 111.00 7.00 L 111.00 47.00 L 132.00 47.00 L 133.00 48.00 L 133.00 49.00 L 141.00 49.00 L 141.00 39.00 L 140.00 39.00 L 139.00 38.00 L 139.00 7.00 L 127.00 7.00 L 127.00 38.00 L 126.00 39.00 L 124.00 39.00 L 123.00 38.00 L 123.00 7.00 Z"/>
</svg>